<svg width="67" height="67" viewBox="0 0 67 67" fill="none" xmlns="http://www.w3.org/2000/svg">
<path d="M38.4703 34.2734C38.4703 35.6154 38.1989 36.9442 37.6717 38.184C37.1445 39.4238 36.3717 40.5503 35.3975 41.4992C34.4233 42.4481 33.2667 43.2008 31.9939 43.7143C30.721 44.2279 29.3568 44.4922 27.979 44.4922C26.6013 44.4922 25.2371 44.2279 23.9642 43.7143C22.6914 43.2008 21.5348 42.4481 20.5606 41.4992C19.5864 40.5503 18.8136 39.4238 18.2864 38.184C17.7592 36.9442 17.4878 35.6154 17.4878 34.2734C17.4878 31.5633 18.5931 28.9641 20.5606 27.0477C22.5281 25.1313 25.1966 24.0547 27.979 24.0547C30.7615 24.0547 33.43 25.1313 35.3975 27.0477C37.365 28.9641 38.4703 31.5633 38.4703 34.2734Z" fill="#532E0B"/>
<path d="M61.9794 9.78127L57.5037 5.42189C54.3728 2.38441 50.1321 0.681607 45.7131 0.687515C41.2856 0.687515 37.0987 2.37502 33.9706 5.42189L33.5375 5.8672C31.2515 8.09377 28.1956 9.47658 24.9472 9.75783C18.715 10.2735 12.8678 12.9219 8.46436 17.211C6.03438 19.5675 4.10721 22.3691 2.79394 25.4544C1.48066 28.5396 0.807242 31.8476 0.812486 35.1875C0.802106 38.6852 1.53811 42.1467 2.97381 45.3527C4.40951 48.5586 6.51358 51.4389 9.15255 53.811L14.6244 59.1406C16.9573 61.4147 19.7275 63.2188 22.7766 64.4496C25.8257 65.6804 29.0939 66.3139 32.3945 66.3139C35.6951 66.3139 38.9633 65.6804 42.0124 64.4496C45.0615 63.2188 47.8317 61.4147 50.1647 59.1406C54.4237 54.9922 57.0466 49.5078 57.5519 43.6485C57.6529 42.486 57.6481 41.3328 57.6409 40.2078C57.6216 37.0461 57.6048 34.1047 59.9822 31.7891L61.9794 29.8438C64.7065 27.1811 66.2381 23.5736 66.2381 19.8125C66.2381 16.0514 64.7065 12.4439 61.9794 9.78127ZM10.9669 50.7031C10.3653 50.1172 9.80464 49.5078 9.28489 48.875L9.30414 48.95C5.83077 44.7363 4.07434 39.4232 4.37089 34.0271C4.66745 28.631 6.99616 23.5308 10.9115 19.7024L10.9669 19.6485C14.797 15.9151 19.8606 13.6234 25.26 13.1797C29.3265 12.8516 33.1525 11.1172 36.04 8.3047L36.49 7.86642C37.6937 6.68327 39.1262 5.74415 40.7048 5.10332C42.2833 4.46249 43.9765 4.13264 45.6866 4.13283C48.2744 4.12493 50.8063 4.8654 52.9616 6.26041C55.117 7.65542 56.7986 9.6422 57.7936 11.969C58.7886 14.2958 59.0521 16.8579 58.5507 19.3307C58.0493 21.8035 56.8056 24.0757 54.9772 25.8594L54.52 26.3047C51.6376 29.1167 49.8581 32.8237 49.4909 36.7813C49.0354 42.0404 46.6826 46.9725 42.8497 50.7031C40.7566 52.7428 38.2714 54.3608 35.5361 55.4648C32.8008 56.5687 29.8691 57.1369 26.9083 57.1369C23.9475 57.1369 21.0157 56.5687 18.2804 55.4648C15.5451 54.3608 13.06 52.7428 10.9669 50.7031Z" fill="#5B9847"/>
</svg>
